<svg xmlns="http://www.w3.org/2000/svg" xmlns:xlink="http://www.w3.org/1999/xlink" version="1.1" width="256" height="256" viewBox="0 0 256 256" xml:space="preserve">
<g style="stroke: none; stroke-width: 0; stroke-dasharray: none; stroke-linecap: butt; stroke-linejoin: miter; stroke-miterlimit: 10; fill: none; fill-rule: nonzero; opacity: 1;" transform="translate(1.4065934065934016 1.4065934065934016) scale(2.81 2.81)">
	<path d="M 87.944 75.732 H 2.056 C 0.921 75.732 0 74.811 0 73.676 V 16.324 c 0 -1.136 0.921 -2.056 2.056 -2.056 h 85.888 c 1.136 0 2.056 0.921 2.056 2.056 v 57.351 C 90 74.811 89.079 75.732 87.944 75.732 z" style="stroke: none; stroke-width: 1; stroke-dasharray: none; stroke-linecap: butt; stroke-linejoin: miter; stroke-miterlimit: 10; fill: rgb(87,89,93); fill-rule: nonzero; opacity: 1;" transform=" matrix(1 0 0 1 0 0) " stroke-linecap="round"/>
	<path d="M 79.612 24.144 h -2.858 v -0.949 c 0 -1.559 -1.264 -2.822 -2.822 -2.822 s -2.822 1.264 -2.822 2.822 v 0.949 h -8.082 v -0.949 c 0 -1.559 -1.264 -2.822 -2.822 -2.822 s -2.822 1.264 -2.822 2.822 v 0.949 h -2.858 c -1.559 0 -2.822 1.264 -2.822 2.822 V 57.56 c 0 1.559 1.264 2.822 2.822 2.822 h 25.087 c 1.559 0 2.822 -1.264 2.822 -2.822 V 26.966 C 82.434 25.407 81.17 24.144 79.612 24.144 z" style="stroke: none; stroke-width: 1; stroke-dasharray: none; stroke-linecap: butt; stroke-linejoin: miter; stroke-miterlimit: 10; fill: rgb(209,192,10); fill-rule: nonzero; opacity: 1;" transform=" matrix(1 0 0 1 0 0) " stroke-linecap="round"/>
	<path d="M 35.581 24.144 h -2.858 v -0.949 c 0 -1.559 -1.264 -2.822 -2.822 -2.822 s -2.822 1.264 -2.822 2.822 v 0.949 h -8.082 v -0.949 c 0 -1.559 -1.264 -2.822 -2.822 -2.822 c -1.559 0 -2.822 1.264 -2.822 2.822 v 0.949 h -2.858 c -1.559 0 -2.822 1.264 -2.822 2.822 V 57.56 c 0 1.559 1.264 2.822 2.822 2.822 h 25.087 c 1.559 0 2.822 -1.264 2.822 -2.822 V 26.966 C 38.404 25.407 37.14 24.144 35.581 24.144 z" style="stroke: none; stroke-width: 1; stroke-dasharray: none; stroke-linecap: butt; stroke-linejoin: miter; stroke-miterlimit: 10; fill: rgb(209,192,10); fill-rule: nonzero; opacity: 1;" transform=" matrix(1 0 0 1 0 0) " stroke-linecap="round"/>
	<path d="M 36.439 67.97 H 9.636 c -1.085 0 -1.964 -0.879 -1.964 -1.964 v -1.464 c 0 -1.085 0.879 -1.964 1.964 -1.964 h 26.803 c 1.085 0 1.964 0.879 1.964 1.964 v 1.464 C 38.404 67.091 37.524 67.97 36.439 67.97 z" style="stroke: none; stroke-width: 1; stroke-dasharray: none; stroke-linecap: butt; stroke-linejoin: miter; stroke-miterlimit: 10; fill: rgb(66,255,0); fill-rule: nonzero; opacity: 1;" transform=" matrix(1 0 0 1 0 0) " stroke-linecap="round"/>
	<path d="M 80.364 67.97 H 53.561 c -1.085 0 -1.964 -0.879 -1.964 -1.964 v -1.464 c 0 -1.085 0.879 -1.964 1.964 -1.964 h 26.803 c 1.085 0 1.964 0.879 1.964 1.964 v 1.464 C 82.328 67.091 81.449 67.97 80.364 67.97 z" style="stroke: none; stroke-width: 1; stroke-dasharray: none; stroke-linecap: butt; stroke-linejoin: miter; stroke-miterlimit: 10; fill: rgb(255,0,0); fill-rule: nonzero; opacity: 1;" transform=" matrix(1 0 0 1 0 0) " stroke-linecap="round"/>
	<circle cx="45" cy="38.67" r="2.84" style="stroke: none; stroke-width: 1; stroke-dasharray: none; stroke-linecap: butt; stroke-linejoin: miter; stroke-miterlimit: 10; fill: rgb(209,192,10); fill-rule: nonzero; opacity: 1;" transform="  matrix(1 0 0 1 0 0) "/>
	<circle cx="45" cy="48.28" r="2.84" style="stroke: none; stroke-width: 1; stroke-dasharray: none; stroke-linecap: butt; stroke-linejoin: miter; stroke-miterlimit: 10; fill: rgb(209,192,10); fill-rule: nonzero; opacity: 1;" transform="  matrix(1 0 0 1 0 0) "/>
	<polygon points="27.32,52.04 17.72,52.04 17.72,49.04 24.32,49.04 24.32,34.7 17.72,34.7 17.72,31.7 27.32,31.7 " style="stroke: none; stroke-width: 1; stroke-dasharray: none; stroke-linecap: butt; stroke-linejoin: miter; stroke-miterlimit: 10; fill: rgb(241,241,241); fill-rule: nonzero; opacity: 1;" transform="  matrix(1 0 0 1 0 0) "/>
	<rect x="17.72" y="40.37" rx="0" ry="0" width="8.1" height="3" style="stroke: none; stroke-width: 1; stroke-dasharray: none; stroke-linecap: butt; stroke-linejoin: miter; stroke-miterlimit: 10; fill: rgb(241,241,241); fill-rule: nonzero; opacity: 1;" transform=" matrix(1 0 0 1 0 0) "/>
	<polygon points="72.62,52.04 63.02,52.04 63.02,49.04 69.62,49.04 69.62,34.7 63.02,34.7 63.02,31.7 72.62,31.7 " style="stroke: none; stroke-width: 1; stroke-dasharray: none; stroke-linecap: butt; stroke-linejoin: miter; stroke-miterlimit: 10; fill: rgb(241,241,241); fill-rule: nonzero; opacity: 1;" transform="  matrix(1 0 0 1 0 0) "/>
	<rect x="63.02" y="40.37" rx="0" ry="0" width="8.1" height="3" style="stroke: none; stroke-width: 1; stroke-dasharray: none; stroke-linecap: butt; stroke-linejoin: miter; stroke-miterlimit: 10; fill: rgb(241,241,241); fill-rule: nonzero; opacity: 1;" transform=" matrix(1 0 0 1 0 0) "/>
</g>
</svg>