<svg xmlns="http://www.w3.org/2000/svg" xmlns:xlink="http://www.w3.org/1999/xlink" version="1.1" width="256" height="256" viewBox="0 0 256 256" xml:space="preserve">
<g style="stroke: none; stroke-width: 0; stroke-dasharray: none; stroke-linecap: butt; stroke-linejoin: miter; stroke-miterlimit: 10; fill: none; fill-rule: nonzero; opacity: 1;" transform="translate(1.3982958269608758 1.398295826960819) scale(2.8 2.8)">
	<rect x="15.52" y="5" rx="0" ry="0" width="59.5" height="80.54" style="stroke: none; stroke-width: 1; stroke-dasharray: none; stroke-linecap: butt; stroke-linejoin: miter; stroke-miterlimit: 10; fill: rgb(134,181,51); fill-rule: nonzero; opacity: 1;" transform=" matrix(1 0 0 1 0 0) "/>
	<path d="M 80.022 90.544 H 10.518 V 0 h 69.504 V 90.544 z M 20.518 80.544 h 49.504 V 10 H 20.518 V 80.544 z" style="stroke: none; stroke-width: 1; stroke-dasharray: none; stroke-linecap: butt; stroke-linejoin: miter; stroke-miterlimit: 10; fill: rgb(134,181,51); fill-rule: nonzero; opacity: 1;" transform=" matrix(1 0 0 1 0 0) " stroke-linecap="round"/>
	<path d="M 76.522 87.044 H 14.018 V 3.5 h 62.504 V 87.044 z M 17.018 84.044 h 56.504 V 6.5 H 17.018 V 84.044 z" style="stroke: none; stroke-width: 1; stroke-dasharray: none; stroke-linecap: butt; stroke-linejoin: miter; stroke-miterlimit: 10; fill: rgb(116,158,41); fill-rule: nonzero; opacity: 1;" transform=" matrix(1 0 0 1 0 0) " stroke-linecap="round"/>
	<path d="M 75.022 46.772 H 15.518 c -0.829 0 -1.5 -0.672 -1.5 -1.5 s 0.671 -1.5 1.5 -1.5 h 59.504 c 0.829 0 1.5 0.672 1.5 1.5 S 75.851 46.772 75.022 46.772 z" style="stroke: none; stroke-width: 1; stroke-dasharray: none; stroke-linecap: butt; stroke-linejoin: miter; stroke-miterlimit: 10; fill: rgb(116,158,41); fill-rule: nonzero; opacity: 1;" transform=" matrix(1 0 0 1 0 0) " stroke-linecap="round"/>
	<path d="M 45.27 54.772 c -5.238 0 -9.5 -4.262 -9.5 -9.5 s 4.262 -9.5 9.5 -9.5 s 9.5 4.262 9.5 9.5 S 50.508 54.772 45.27 54.772 z M 45.27 38.772 c -3.584 0 -6.5 2.916 -6.5 6.5 s 2.916 6.5 6.5 6.5 s 6.5 -2.916 6.5 -6.5 S 48.854 38.772 45.27 38.772 z" style="stroke: none; stroke-width: 1; stroke-dasharray: none; stroke-linecap: butt; stroke-linejoin: miter; stroke-miterlimit: 10; fill: rgb(116,158,41); fill-rule: nonzero; opacity: 1;" transform=" matrix(1 0 0 1 0 0) " stroke-linecap="round"/>
	<path d="M 57.536 87.044 H 33.003 V 74.017 h 24.533 V 87.044 z M 36.003 84.044 h 18.533 v -7.027 H 36.003 V 84.044 z" style="stroke: none; stroke-width: 1; stroke-dasharray: none; stroke-linecap: butt; stroke-linejoin: miter; stroke-miterlimit: 10; fill: rgb(116,158,41); fill-rule: nonzero; opacity: 1;" transform=" matrix(1 0 0 1 0 0) " stroke-linecap="round"/>
	<path d="M 57.536 16.527 H 33.003 V 3.5 h 24.533 V 16.527 z M 36.003 13.527 h 18.533 V 6.5 H 36.003 V 13.527 z" style="stroke: none; stroke-width: 1; stroke-dasharray: none; stroke-linecap: butt; stroke-linejoin: miter; stroke-miterlimit: 10; fill: rgb(116,158,41); fill-rule: nonzero; opacity: 1;" transform=" matrix(1 0 0 1 0 0) " stroke-linecap="round"/>
	<path d="M 15.518 14.5 v -3 c 3.584 0 6.5 -2.916 6.5 -6.5 h 3 C 25.018 10.238 20.756 14.5 15.518 14.5 z" style="stroke: none; stroke-width: 1; stroke-dasharray: none; stroke-linecap: butt; stroke-linejoin: miter; stroke-miterlimit: 10; fill: rgb(116,158,41); fill-rule: nonzero; opacity: 1;" transform=" matrix(1 0 0 1 0 0) " stroke-linecap="round"/>
	<path d="M 75.022 14.5 c -5.238 0 -9.5 -4.262 -9.5 -9.5 h 3 c 0 3.584 2.916 6.5 6.5 6.5 V 14.5 z" style="stroke: none; stroke-width: 1; stroke-dasharray: none; stroke-linecap: butt; stroke-linejoin: miter; stroke-miterlimit: 10; fill: rgb(116,158,41); fill-rule: nonzero; opacity: 1;" transform=" matrix(1 0 0 1 0 0) " stroke-linecap="round"/>
	<path d="M 25.018 85.544 h -3 c 0 -3.584 -2.916 -6.5 -6.5 -6.5 v -3 C 20.756 76.044 25.018 80.306 25.018 85.544 z" style="stroke: none; stroke-width: 1; stroke-dasharray: none; stroke-linecap: butt; stroke-linejoin: miter; stroke-miterlimit: 10; fill: rgb(116,158,41); fill-rule: nonzero; opacity: 1;" transform=" matrix(1 0 0 1 0 0) " stroke-linecap="round"/>
	<path d="M 68.522 85.544 h -3 c 0 -5.238 4.262 -9.5 9.5 -9.5 v 3 C 71.438 79.044 68.522 81.96 68.522 85.544 z" style="stroke: none; stroke-width: 1; stroke-dasharray: none; stroke-linecap: butt; stroke-linejoin: miter; stroke-miterlimit: 10; fill: rgb(116,158,41); fill-rule: nonzero; opacity: 1;" transform=" matrix(1 0 0 1 0 0) " stroke-linecap="round"/>
	<path d="M 64.924 63.739 l -0.857 -0.514 c 4.797 -7.993 4.792 -19.952 -0.011 -28.437 c -3.627 -6.407 -9.529 -9.936 -16.619 -9.936 v -1 c 7.465 0 13.676 3.709 17.489 10.443 C 69.895 43.075 69.894 55.458 64.924 63.739 z" style="stroke: none; stroke-width: 1; stroke-dasharray: none; stroke-linecap: butt; stroke-linejoin: miter; stroke-miterlimit: 10; fill: rgb(255,255,255); fill-rule: nonzero; opacity: 1;" transform=" matrix(1 0 0 1 0 0) " stroke-linecap="round"/>
	<polygon points="69.09,65.43 59.73,68.85 61.45,59.03 " style="stroke: none; stroke-width: 1; stroke-dasharray: none; stroke-linecap: butt; stroke-linejoin: miter; stroke-miterlimit: 10; fill: rgb(255,255,255); fill-rule: nonzero; opacity: 1;" transform="  matrix(1 0 0 1 0 0) "/>
	<rect x="22.81" y="30.49" rx="0" ry="0" width="1" height="13.69" style="stroke: none; stroke-width: 1; stroke-dasharray: none; stroke-linecap: butt; stroke-linejoin: miter; stroke-miterlimit: 10; fill: rgb(255,255,255); fill-rule: nonzero; opacity: 1;" transform=" matrix(1 0 0 1 0 0) "/>
	<polygon points="28.3,42.73 23.31,51.36 18.33,42.73 " style="stroke: none; stroke-width: 1; stroke-dasharray: none; stroke-linecap: butt; stroke-linejoin: miter; stroke-miterlimit: 10; fill: rgb(255,255,255); fill-rule: nonzero; opacity: 1;" transform="  matrix(1 0 0 1 0 0) "/>
	<rect x="22.96" y="52.66" rx="0" ry="0" width="1" height="8.11" style="stroke: none; stroke-width: 1; stroke-dasharray: none; stroke-linecap: butt; stroke-linejoin: miter; stroke-miterlimit: 10; fill: rgb(255,255,255); fill-rule: nonzero; opacity: 1;" transform=" matrix(0.7071 -0.7071 0.7071 0.7071 -33.2345 33.2033) "/>
	<rect x="19.41" y="56.22" rx="0" ry="0" width="8.11" height="1" style="stroke: none; stroke-width: 1; stroke-dasharray: none; stroke-linecap: butt; stroke-linejoin: miter; stroke-miterlimit: 10; fill: rgb(255,255,255); fill-rule: nonzero; opacity: 1;" transform=" matrix(0.7071 -0.7071 0.7071 0.7071 -33.2345 33.2033) "/>
	<rect x="53.96" y="69.66" rx="0" ry="0" width="1" height="8.11" style="stroke: none; stroke-width: 1; stroke-dasharray: none; stroke-linecap: butt; stroke-linejoin: miter; stroke-miterlimit: 10; fill: rgb(255,255,255); fill-rule: nonzero; opacity: 1;" transform=" matrix(0.7071 -0.7071 0.7071 0.7071 -36.1756 60.1028) "/>
	<rect x="50.41" y="73.22" rx="0" ry="0" width="8.11" height="1" style="stroke: none; stroke-width: 1; stroke-dasharray: none; stroke-linecap: butt; stroke-linejoin: miter; stroke-miterlimit: 10; fill: rgb(255,255,255); fill-rule: nonzero; opacity: 1;" transform=" matrix(0.7071 -0.7071 0.7071 0.7071 -36.1756 60.1028) "/>
	<path d="M 23.481 27.758 c -2.429 0 -4.406 -1.977 -4.406 -4.406 c 0 -2.429 1.977 -4.406 4.406 -4.406 s 4.406 1.977 4.406 4.406 C 27.887 25.782 25.91 27.758 23.481 27.758 z M 23.481 19.946 c -1.878 0 -3.406 1.528 -3.406 3.406 c 0 1.878 1.528 3.406 3.406 3.406 s 3.406 -1.528 3.406 -3.406 C 26.887 21.474 25.359 19.946 23.481 19.946 z" style="stroke: none; stroke-width: 1; stroke-dasharray: none; stroke-linecap: butt; stroke-linejoin: miter; stroke-miterlimit: 10; fill: rgb(255,255,255); fill-rule: nonzero; opacity: 1;" transform=" matrix(1 0 0 1 0 0) " stroke-linecap="round"/>
	<path d="M 40.481 28.758 c -2.429 0 -4.406 -1.977 -4.406 -4.406 c 0 -2.429 1.977 -4.406 4.406 -4.406 s 4.406 1.977 4.406 4.406 C 44.887 26.782 42.91 28.758 40.481 28.758 z M 40.481 20.946 c -1.878 0 -3.406 1.528 -3.406 3.406 c 0 1.878 1.528 3.406 3.406 3.406 s 3.406 -1.528 3.406 -3.406 C 43.887 22.474 42.359 20.946 40.481 20.946 z" style="stroke: none; stroke-width: 1; stroke-dasharray: none; stroke-linecap: butt; stroke-linejoin: miter; stroke-miterlimit: 10; fill: rgb(255,255,255); fill-rule: nonzero; opacity: 1;" transform=" matrix(1 0 0 1 0 0) " stroke-linecap="round"/>
	<rect x="35.72" y="56.11" rx="0" ry="0" width="1" height="13.43" style="stroke: none; stroke-width: 1; stroke-dasharray: none; stroke-linecap: butt; stroke-linejoin: miter; stroke-miterlimit: 10; fill: rgb(255,255,255); fill-rule: nonzero; opacity: 1;" transform=" matrix(0.4966 -0.868 0.868 0.4966 -36.2973 63.0536) "/>
	<polygon points="43.25,61.1 48.27,69.72 38.3,69.76 " style="stroke: none; stroke-width: 1; stroke-dasharray: none; stroke-linecap: butt; stroke-linejoin: miter; stroke-miterlimit: 10; fill: rgb(255,255,255); fill-rule: nonzero; opacity: 1;" transform="  matrix(1 0 0 1 0 0) "/>
</g>
</svg>