<svg xmlns="http://www.w3.org/2000/svg" xmlns:xlink="http://www.w3.org/1999/xlink" version="1.1" width="256" height="256" viewBox="0 0 256 256" xml:space="preserve">
<g style="stroke: none; stroke-width: 0; stroke-dasharray: none; stroke-linecap: butt; stroke-linejoin: miter; stroke-miterlimit: 10; fill: none; fill-rule: nonzero; opacity: 1;" transform="translate(1.4065934065934016 1.4065934065934016) scale(2.81 2.81)">
	<circle cx="62.194" cy="46.144000000000005" r="17.734" style="stroke: none; stroke-width: 1; stroke-dasharray: none; stroke-linecap: butt; stroke-linejoin: miter; stroke-miterlimit: 10; fill: rgb(241,241,241); fill-rule: nonzero; opacity: 1;" transform="  matrix(1 0 0 1 0 0) "/>
	<path d="M 43.269 47.239 c -0.024 -7.691 -6.535 -16.784 -14 -17.146 l -15.014 3.259 l 2.137 2.288 l 11.663 -0.129 c 5.559 0.259 7.939 3.997 7.957 9.489 c 0 7.621 3.182 14.488 8.273 19.385 C 41.516 59.056 43.269 53.725 43.269 47.239 z" style="stroke: none; stroke-width: 1; stroke-dasharray: none; stroke-linecap: butt; stroke-linejoin: miter; stroke-miterlimit: 10; fill: rgb(63,64,66); fill-rule: nonzero; opacity: 1;" transform=" matrix(1 0 0 1 0 0) " stroke-linecap="round"/>
	<path d="M 51.168 45.041 c 0 -6.039 2.42 -11.508 6.333 -15.51 c -6.426 2.256 -11.042 8.36 -11.042 15.556 c 0 7.245 4.676 13.384 11.169 15.603 C 53.636 56.678 51.168 51.148 51.168 45.041 z" style="stroke: none; stroke-width: 1; stroke-dasharray: none; stroke-linecap: butt; stroke-linejoin: miter; stroke-miterlimit: 10; fill: rgb(219,219,219); fill-rule: nonzero; opacity: 1;" transform=" matrix(1 0 0 1 0 0) " stroke-linecap="round"/>
	<circle cx="84.496" cy="23.596" r="5.506" style="stroke: none; stroke-width: 1; stroke-dasharray: none; stroke-linecap: butt; stroke-linejoin: miter; stroke-miterlimit: 10; fill: rgb(87,89,93); fill-rule: nonzero; opacity: 1;" transform="  matrix(1 0 0 1 0 0) "/>
	<circle cx="62.940999999999995" cy="45.111" r="4.641" style="stroke: none; stroke-width: 1; stroke-dasharray: none; stroke-linecap: butt; stroke-linejoin: miter; stroke-miterlimit: 10; fill: rgb(219,219,219); fill-rule: nonzero; opacity: 1;" transform="  matrix(1 0 0 1 0 0) "/>
	<path d="M 62.924 18.087 h -9.638 v 4.994 l -4.994 -4.994 H 0 l 14.636 15.674 c 0 0 0 0 0 0 l -0.382 -0.409 l 15.005 -0.173 c 7.465 0.362 10.661 5.597 10.685 13.288 c 0 6.473 1.567 12.564 4.323 17.885 c 4.836 4.672 11.401 7.562 18.657 7.562 c 14.864 0 26.913 -12.049 26.913 -26.913 C 89.837 30.136 77.788 18.087 62.924 18.087 z M 63.023 61.029 c -8.817 0 -15.965 -7.148 -15.965 -15.965 c 0 -8.817 7.148 -15.965 15.965 -15.965 c 8.817 0 15.965 7.148 15.965 15.965 C 78.988 53.881 71.84 61.029 63.023 61.029 z" style="stroke: none; stroke-width: 1; stroke-dasharray: none; stroke-linecap: butt; stroke-linejoin: miter; stroke-miterlimit: 10; fill: rgb(87,89,93); fill-rule: nonzero; opacity: 1;" transform=" matrix(1 0 0 1 0 0) " stroke-linecap="round"/>
</g>
</svg>